<?xml version="1.0" encoding="utf-8"?>
<!-- Generator: Adobe Illustrator 16.0.0, SVG Export Plug-In . SVG Version: 6.00 Build 0)  -->
<!DOCTYPE svg PUBLIC "-//W3C//DTD SVG 1.1//EN" "http://www.w3.org/Graphics/SVG/1.1/DTD/svg11.dtd">
<svg version="1.1" id="Layer_1" xmlns="http://www.w3.org/2000/svg" xmlns:xlink="http://www.w3.org/1999/xlink" x="0px" y="0px"
	 width="960px" height="560px" viewBox="0 0 960 560" enable-background="new 0 0 960 560" xml:space="preserve">
<g>
	<path fill="#00B8EA" d="M386.624,198.649c-10.828-8.917-36.306-5.732-45.86,3.185c-20.382,19.108-3.185,53.503,8.28,71.975
		c6.37,10.191,13.376,21.656,20.382,30.573c8.917,10.828,14.013,2.548,21.656-6.369c13.375-16.561,38.854-50.318,30.573-73.885
		c-5.096-14.65-25.478-29.299-40.765-28.663"/>
	<g>
		<path d="M387.381,197.354c-7.297-5.628-17.707-6.254-26.517-5.036c-9.611,1.329-18.651,4.623-24.749,12.472
			c-13.179,16.965-3.579,41.518,5.017,58.204c5.809,11.274,12.926,22.026,20.017,32.521c4.506,6.668,11.59,19.765,21.249,13.823
			c4.159-2.558,7.373-7.32,10.381-11.054c3.038-3.77,5.995-7.604,8.863-11.505c6.886-9.363,13.139-19.277,17.761-29.963
			c5.666-13.099,8.079-27.706,0.071-40.325c-7.843-12.36-23.663-22.757-38.583-22.526c-1.933,0.03-1.936,3.03,0,3
			c12.704-0.196,24.716,7.757,32.876,16.936c8.425,9.476,9.31,20.98,6.09,32.795c-3.142,11.529-9.538,22.146-16.158,31.98
			c-6.091,9.049-12.813,18.146-20.405,26c-6.958,7.196-12.293-0.483-16.572-6.397c-4.51-6.233-8.597-12.773-12.678-19.291
			c-6.196-9.895-12.115-19.855-16.342-30.78c-4.156-10.743-6.756-22.861-3.18-34.116c3.732-11.745,14.53-16.859,25.844-18.702
			c8.43-1.373,18.513-0.834,25.5,4.555C387.399,201.126,388.89,198.518,387.381,197.354L387.381,197.354z"/>
	</g>
</g>
</svg>
