<?xml version="1.0" encoding="utf-8"?>
<!-- Generator: Adobe Illustrator 16.0.0, SVG Export Plug-In . SVG Version: 6.00 Build 0)  -->
<!DOCTYPE svg PUBLIC "-//W3C//DTD SVG 1.1//EN" "http://www.w3.org/Graphics/SVG/1.1/DTD/svg11.dtd">
<svg version="1.1" id="Layer_1" xmlns="http://www.w3.org/2000/svg" xmlns:xlink="http://www.w3.org/1999/xlink" x="0px" y="0px"
	 width="960px" height="560px" viewBox="0 0 960 560" enable-background="new 0 0 960 560" xml:space="preserve">
<g>
	<path fill="#00B8EA" d="M291.006,181.828c-10.828-8.917-36.306-5.732-45.86,3.185c-20.382,19.108-3.185,53.502,8.28,71.975
		c6.37,10.191,13.376,21.656,20.382,30.572c8.917,10.828,14.014,2.549,21.656-6.367c13.375-16.563,38.854-50.319,30.573-73.887
		c-5.097-14.649-25.479-29.298-40.766-28.663"/>
	<g>
		<path d="M291.763,180.533c-7.297-5.628-17.707-6.254-26.517-5.036c-9.611,1.329-18.651,4.623-24.749,12.472
			c-13.18,16.964-3.579,41.518,5.017,58.205c5.81,11.273,12.926,22.025,20.018,32.521c4.506,6.668,11.59,19.764,21.249,13.822
			c4.158-2.559,7.373-7.32,10.381-11.055c3.038-3.77,5.995-7.604,8.862-11.504c6.887-9.363,13.14-19.277,17.762-29.964
			c5.666-13.099,8.079-27.706,0.07-40.325c-7.843-12.36-23.663-22.757-38.583-22.526c-1.933,0.03-1.936,3.03,0,3
			c12.704-0.196,24.717,7.757,32.876,16.936c8.426,9.477,9.311,20.98,6.091,32.795c-3.143,11.529-9.538,22.146-16.158,31.98
			c-6.091,9.049-12.813,18.146-20.405,26c-6.958,7.195-12.293-0.482-16.572-6.396c-4.51-6.234-8.597-12.773-12.678-19.291
			c-6.196-9.896-12.115-19.855-16.342-30.781c-4.156-10.742-6.756-22.86-3.18-34.116c3.731-11.745,14.529-16.859,25.844-18.702
			c8.43-1.373,18.513-0.834,25.5,4.555C291.781,184.305,293.271,181.697,291.763,180.533L291.763,180.533z"/>
	</g>
</g>
<line fill="#FFFFFF" stroke="#FFFFFF" stroke-width="2" stroke-miterlimit="10" x1="258.066" y1="205.923" x2="263.264" y2="206.616"/>
<line fill="#FFFFFF" stroke="#FFFFFF" stroke-width="2" stroke-miterlimit="10" x1="263.264" y1="206.616" x2="269.067" y2="227.407"/>
<line fill="#FFFFFF" stroke="#FFFFFF" stroke-width="2" stroke-miterlimit="10" x1="269.067" y1="227.407" x2="295.42" y2="226.367"/>
<line fill="#FFFFFF" stroke="#FFFFFF" stroke-width="2" stroke-miterlimit="10" x1="295.42" y1="226.367" x2="298.625" y2="212.247"/>
<line fill="#FFFFFF" stroke="#FFFFFF" stroke-width="2" stroke-miterlimit="10" x1="298.5" y1="212.5" x2="264.5" y2="212.5"/>
<line fill="#FFFFFF" stroke="#FFFFFF" stroke-width="2" stroke-miterlimit="10" x1="268.5" y1="234.5" x2="298.5" y2="234.5"/>
<path fill="#FFFFFF" stroke="#FFFFFF" stroke-width="2" stroke-miterlimit="10" d="M269.067,234.752
	c-1.997-1.306-1.998-4.835-0.001-7.89"/>
<circle fill="#FFFFFF" stroke="#FFFFFF" stroke-width="2" stroke-miterlimit="10" cx="273.139" cy="236.138" r="1.386"/>
<circle fill="#FFFFFF" stroke="#FFFFFF" stroke-width="2" stroke-miterlimit="10" cx="293.202" cy="236.364" r="1.386"/>
<line fill="#FFFFFF" stroke="#FFFFFF" stroke-width="2" stroke-miterlimit="10" x1="273.5" y1="212.5" x2="273.5" y2="227.5"/>
<line fill="#FFFFFF" stroke="#FFFFFF" stroke-width="2" stroke-miterlimit="10" x1="281.5" y1="212.5" x2="281.5" y2="227.5"/>
<line fill="#FFFFFF" stroke="#FFFFFF" stroke-width="2" stroke-miterlimit="10" x1="289.5" y1="211.5" x2="289.5" y2="226.5"/>
<line fill="#FFFFFF" stroke="#FFFFFF" stroke-width="2" stroke-miterlimit="10" x1="266.5" y1="216.5" x2="297.5" y2="216.5"/>
<line fill="#FFFFFF" stroke="#FFFFFF" stroke-width="2" stroke-miterlimit="10" x1="267.5" y1="222.5" x2="296.5" y2="222.5"/>
</svg>
