<?xml version="1.0" encoding="utf-8"?>
<!-- Generator: Adobe Illustrator 16.0.0, SVG Export Plug-In . SVG Version: 6.00 Build 0)  -->
<!DOCTYPE svg PUBLIC "-//W3C//DTD SVG 1.1//EN" "http://www.w3.org/Graphics/SVG/1.1/DTD/svg11.dtd">
<svg version="1.1" id="Layer_1" xmlns="http://www.w3.org/2000/svg" xmlns:xlink="http://www.w3.org/1999/xlink" x="0px" y="0px"
	 width="122.5px" height="176.835px" viewBox="498.28 147.25 122.5 176.835" enable-background="new 498.28 147.25 122.5 176.835"
	 xml:space="preserve">
<g id="Layer_1_1_">
	<path fill="#C70005" stroke="#000000" stroke-miterlimit="10" d="M620.28,208.5c0,33.551-60.75,114.75-60.75,114.75
		s-60.75-81.199-60.75-114.75s27.198-60.75,60.75-60.75S620.28,174.949,620.28,208.5z"/>
</g>
<g id="Layer_2">
	<path fill="#FFFFFF" d="M596.804,237.475c-2.73-5.486-4.952-7.653-11.155-9.14c-6.452-1.546-14.969-0.48-16.434-8.18
		C575.056,216.377,579,209.217,579,201c0-12.15-8.618-22-19.25-22s-19.25,9.85-19.25,22c0,8.025,3.761,15.044,9.377,18.887
		c-1.299,7.785-9.916,7.328-16.463,8.553c-6.177,1.156-8.527,3.748-11.157,9.03c-0.497,0.998,0.102,2.031,1.295,2.031
		c23.985,0,47.973,0,71.957,0C596.703,239.5,597.301,238.473,596.804,237.475z"/>
</g>
</svg>
