<?xml version="1.0" encoding="utf-8"?>
<!-- Generator: Adobe Illustrator 16.0.0, SVG Export Plug-In . SVG Version: 6.00 Build 0)  -->
<!DOCTYPE svg PUBLIC "-//W3C//DTD SVG 1.1//EN" "http://www.w3.org/Graphics/SVG/1.1/DTD/svg11.dtd">
<svg version="1.1" xmlns="http://www.w3.org/2000/svg" xmlns:xlink="http://www.w3.org/1999/xlink" x="0px" y="0px" width="960px"
	 height="560px" viewBox="0 0 960 560" enable-background="new 0 0 960 560" xml:space="preserve">
<g id="Layer_1">
	<path fill="#C70005" stroke="#000000" stroke-miterlimit="10" d="M620.28,208.5c0,33.551-60.75,114.75-60.75,114.75
		s-60.75-81.199-60.75-114.75s27.198-60.75,60.75-60.75S620.28,174.949,620.28,208.5z"/>
	<circle fill="#FFFFFF" cx="559.25" cy="198" r="21.5"/>
</g>
<g id="Layer_2">
	<g>
		<g>
			<path fill="#FFFFFF" d="M567.048,219.043c0.447,5.023,2.267,8.44,7.06,10.32c3.342,1.311,7.246,1.325,10.742,1.979
				c5.191,0.972,7.187,3.505,9.364,7.877c0.432-0.752,0.863-1.504,1.295-2.257c-23.985,0-47.972,0-71.957,0
				c0.432,0.752,0.863,1.505,1.295,2.257c2.24-4.497,4.188-6.636,9.364-7.877c3.56-0.853,7.229-0.89,10.743-1.979
				c4.85-1.502,6.639-5.597,7.059-10.32c-0.5,0.5-1,1-1.5,1.5c6.012,0,12.023,0,18.035,0c1.935,0,1.935-3,0-3
				c-6.012,0-12.023,0-18.035,0c-0.872,0-1.428,0.686-1.5,1.5c-0.775,8.713-8.812,8.137-15.599,9.407
				c-6.177,1.156-8.527,3.974-11.157,9.256c-0.497,0.998,0.101,2.257,1.295,2.257c23.985,0,47.972,0,71.957,0
				c1.194,0,1.792-1.259,1.295-2.257c-2.731-5.486-4.952-7.769-11.156-9.256c-6.764-1.621-14.8-0.422-15.6-9.407
				C569.878,217.132,566.876,217.116,567.048,219.043z"/>
		</g>
	</g>
	<g>
		<g>
			<path fill="#FFFFFF" d="M552.5,232c1.935,0,1.935-3,0-3S550.565,232,552.5,232L552.5,232z"/>
		</g>
	</g>
	<g>
		<g>
			<path fill="#FFFFFF" d="M552.5,232c1.935,0,1.935-3,0-3S550.565,232,552.5,232L552.5,232z"/>
		</g>
	</g>
	<g>
		<g>
			<path fill="#FFFFFF" d="M553.795,231.257c0.595-0.981,1.946-1.259,2.62-2.247c1.012-1.484,0.811-3.225,0.531-4.909
				c-0.125-0.752-1.138-1.32-1.845-1.047c0.106-0.041-0.088,0.784-0.102,0.446c-0.07-1.717-2.409-2.01-2.946-0.399
				c-0.333,1-0.667,2-1,3c0.982,0.133,1.964,0.266,2.946,0.399c0.003-2.924,0.277-5.748,0.946-8.601
				c-0.982-0.133-1.964-0.266-2.946-0.399c0,2.446-1.007,6.184,1.335,7.671c1.67,1.061,3.329-0.803,3.611-2.272
				c-0.982-0.133-1.964-0.266-2.946-0.399c0,1,0,2,0,3c0.982-0.133,1.964-0.266,2.946-0.399c-0.219-0.837,0.138-0.461,0.918-0.859
				c0.563-0.288,0.926-0.725,1.082-1.343c0.475-1.876-2.419-2.672-2.893-0.798c0.183-0.724,0.413-0.591-0.469-0.235
				c-0.452,0.182-0.796,0.416-1.137,0.765c-0.858,0.882-0.674,2.197-0.395,3.268c0.431,1.65,2.946,1.291,2.946-0.399c0-1,0-2,0-3
				c0-1.655-2.621-2.095-2.946-0.399c0.067,0.035,0.136,0.069,0.203,0.104c0.248,0.432,0.495,0.864,0.743,1.295c0-2,0-4,0-6
				c0-1.674-2.555-2.069-2.946-0.399c-0.729,3.109-1.05,6.209-1.054,9.399c-0.002,1.744,2.421,1.976,2.946,0.399
				c0.333-1,0.667-2,1-3c-0.982-0.133-1.964-0.266-2.946-0.399c0.09,2.201,1.909,3.212,3.898,2.446
				c-0.615-0.349-1.229-0.698-1.845-1.047c0.506,3.057-1.54,2.684-2.849,4.844C550.2,231.402,552.795,232.909,553.795,231.257
				L553.795,231.257z"/>
		</g>
	</g>
	<g>
		<g>
			<path fill="#FFFFFF" d="M553.5,227c-1.667,0-3.333,0-5,0c0.354,0.854,0.707,1.707,1.061,2.561
				c4.337-4.35,8.114-8.666,9.886-14.662c-0.982-0.133-1.964-0.266-2.946-0.399c-0.198,3.717-1.25,7.26-1,11
				c0.094,1.404,2.047,2.155,2.795,0.757c1.308-2.445,2.391-4.491,2.705-7.257c-0.932,0.252-1.863,0.505-2.795,0.757
				c1.315,3.027,1.713,5.964,1.795,9.243c0.049,1.931,2.995,1.938,3,0c0.007-2.559,0.047-5.063,0.446-7.601
				c-0.914,0.119-1.827,0.239-2.741,0.358c1.024,1.334,2.131,2.544,3,4c0.797,1.337,2.7,0.696,2.795-0.757
				c0.099-1.512,0.371-2.993,0.5-4.5c-1,0-2,0-3,0c-0.271,4.762,1.904,8.323,6.243,10.295c0.781,0.355,2.048,0.148,2.203-0.896
				c0.725-4.871-1.457-8.146-6.048-9.845c-1.122-0.416-2.097,0.819-1.845,1.845c0.833,3.392,2.53,6.104,4.651,8.858
				c0.785-0.605,1.57-1.211,2.355-1.817c-5.574-5.675-9.795-7.792-16.913-3.743c-8.086,4.6-18.61,10.153-28.147,9.804
				c-1.936-0.071-1.929,2.929,0,3c7.526,0.275,15.189-3.131,21.87-6.271c3.257-1.531,6.38-3.188,9.535-4.917
				c4.825-2.643,8.188,0.842,11.534,4.248c1.165,1.186,3.414-0.443,2.355-1.817c-1.943-2.524-3.576-4.999-4.349-8.142
				c-0.615,0.615-1.229,1.23-1.845,1.845c2.938,0.796,4.255,2.848,3.952,6.155c0.734-0.299,1.469-0.598,2.203-0.896
				c-3.374-1.534-4.969-3.978-4.757-7.705c0.111-1.947-2.838-1.902-3,0c-0.129,1.509-0.401,2.988-0.5,4.5
				c0.932-0.252,1.863-0.505,2.795-0.757c-0.888-1.489-1.939-2.62-3-4c-0.678-0.884-2.513-1.095-2.741,0.358
				c-0.44,2.798-0.546,5.566-0.554,8.399c1,0,2,0,3,0c-0.096-3.807-0.682-7.253-2.205-10.757c-0.667-1.536-2.649-0.527-2.795,0.757
				c-0.254,2.233-1.291,3.866-2.295,5.743c0.932,0.252,1.863,0.504,2.795,0.757c-0.248-3.715,0.803-7.303,1-11
				c0.093-1.733-2.479-1.984-2.946-0.399c-1.622,5.491-5.162,9.374-9.114,13.338c-0.924,0.926-0.249,2.561,1.061,2.561
				c1.667,0,3.333,0,5,0C555.435,230,555.435,227,553.5,227L553.5,227z"/>
		</g>
	</g>
	<g>
		<g>
			<path fill="#FFFFFF" d="M544.5,228.5c-5.758-0.414-12.525,2.008-17.257,5.205c-1.594,1.077-0.094,3.677,1.514,2.591
				c4.321-2.919,10.476-5.174,15.743-4.795C546.432,231.639,546.418,228.638,544.5,228.5L544.5,228.5z"/>
		</g>
	</g>
	<g>
		<g>
			<path fill="#FFFFFF" d="M544.5,227.5c0,1.167,0,2.333,0,3.5c0,1.935,3,1.935,3,0c0-1.167,0-2.333,0-3.5
				C547.5,225.565,544.5,225.565,544.5,227.5L544.5,227.5z"/>
		</g>
	</g>
	<g>
		<g>
			<path fill="#FFFFFF" d="M540.898,231.054c-3.489-1.056-6.659,0.131-8.959,2.886c-1.23,1.474,0.88,3.608,2.121,2.121
				c1.641-1.964,3.51-2.88,6.041-2.114C541.958,234.508,542.745,231.612,540.898,231.054L540.898,231.054z"/>
		</g>
	</g>
	<g>
		<g>
			<path fill="#FFFFFF" d="M542.102,235.446c5.114,0.881,9.893,0.05,14.797-1.5c1.45-0.458,1.408-2.417,0-2.893
				c-4.826-1.63-9.795-1.928-14.797-1c0.266,0.964,0.531,1.928,0.797,2.893c5.207-1.875,10.851-1.963,16-4
				c1.814-0.717,1.116-3.177-0.797-2.893c-3.48,0.518-5.723,2.134-8.215,4.506c-3.663,3.486-9.688,2.543-14.285,3.994
				c-1.324,0.418-1.538,2.592,0,2.893c6.862,1.341,15.213,1.728,21.928-0.57c5.171-1.77,3.517-6.94,1.917-10.775
				c-0.733-1.758-3.638-0.987-2.893,0.798c0.651,1.562,1.372,3.169,1.6,4.863c0.305,2.275-2.511,2.605-4.129,2.938
				c-5.591,1.152-12.058,0.942-17.626-0.146c0,0.964,0,1.928,0,2.893c3.784-1.194,9.443-0.448,12.858-2.651
				c3.409-2.2,5.347-5.21,9.642-5.849c-0.266-0.964-0.531-1.928-0.797-2.893c-5.15,2.037-10.794,2.125-16,4
				c-1.826,0.657-1.106,3.246,0.797,2.893c4.474-0.83,8.898-0.453,13.203,1c0-0.964,0-1.928,0-2.893
				c-4.342,1.372-8.651,2.284-13.203,1.5C541.007,232.228,540.197,235.119,542.102,235.446L542.102,235.446z"/>
		</g>
	</g>
	<g>
		<g>
			<path fill="#FFFFFF" d="M557.257,232.295c2.461-1.793,3.194-4.89,3.243-7.795c0.032-1.936-2.968-1.933-3,0
				c-0.027,1.67-0.264,4.117-1.757,5.205C554.196,230.832,555.69,233.437,557.257,232.295L557.257,232.295z"/>
		</g>
	</g>
	<g>
		<g>
			<path fill="#FFFFFF" d="M590.5,234.5c-12.19-1.309-24.442,1.339-36.602-0.446c0.12,0.914,0.239,1.828,0.358,2.742
				c4.476-1.967,5.336-6.297,8.304-9.735c-0.836-0.221-1.671-0.441-2.507-0.662c0.605,3.121-0.602,4.891-2.614,7.041
				c-1.016,1.085-0.021,2.905,1.459,2.507c4.174-1.122,5.396-4.581,6.048-8.547c-0.964,0-1.929,0-2.893,0
				c0.691,1.702,0.926,3.268,0.946,5.101c0.021,1.934,3.021,1.936,3,0c-0.023-2.172-0.23-3.875-1.054-5.899
				c-0.487-1.198-2.623-1.642-2.893,0c-0.435,2.64-0.748,5.591-3.952,6.453c0.486,0.835,0.973,1.671,1.459,2.507
				c2.813-3.003,4.189-5.822,3.386-9.959c-0.209-1.075-1.795-1.486-2.507-0.662c-2.695,3.121-3.661,7.491-7.696,9.265
				c-1.144,0.502-0.889,2.559,0.358,2.742c12.443,1.828,24.935-0.784,37.398,0.554C592.423,237.707,592.402,234.704,590.5,234.5
				L590.5,234.5z"/>
		</g>
	</g>
	<g>
		<g>
			<path fill="#FFFFFF" d="M564.5,230.5c0.846,0.081,1.643,0.371,2.229,0.959c0.465,0.466,0.57,1.005,0.544,1.573
				c0.014-0.304-0.032,0.129-0.042,0.171c-0.086,0.35-0.019,0.105-0.116,0.284c-0.098,0.144-0.098,0.154-0.002,0.029
				c-0.059,0.069-0.122,0.134-0.188,0.195c0.253-0.246-0.356,0.168-0.045,0.043c-0.24,0.097-0.399,0.123-0.637,0.084
				c-0.551-0.09-1.017-0.346-1.486-0.634c0.102,0.786,0.202,1.571,0.304,2.356c0.634-0.668,1.162-1.412,1.648-2.192
				c0.446-0.714,0.85-1.564,1.548-2.073c1.547-1.127,0.053-3.732-1.514-2.591c-1.726,1.257-2.376,3.229-3.804,4.735
				c-0.674,0.71-0.535,1.842,0.304,2.356c1.31,0.803,2.91,1.353,4.435,0.851c1.306-0.43,2.25-1.588,2.508-2.926
				c0.691-3.586-2.469-5.914-5.686-6.22C562.574,227.316,562.592,230.318,564.5,230.5L564.5,230.5z"/>
		</g>
	</g>
	<g>
		<g>
			<path fill="#FFFFFF" d="M567.743,231.705c-2.942,1.777-6.454,1.321-9.743,1.295c-1.936-0.015-1.934,2.985,0,3
				c3.867,0.03,7.809,0.377,11.257-1.705C570.91,233.297,569.403,230.702,567.743,231.705L567.743,231.705z"/>
		</g>
	</g>
	<g>
		<g>
			<path fill="#FFFFFF" d="M561.602,226.946c1.782,0.498,3.065,1.843,4.338,3.114c1.369,1.369,3.491-0.753,2.121-2.121
				c-1.649-1.648-3.36-3.243-5.662-3.886C560.532,223.532,559.741,226.426,561.602,226.946L561.602,226.946z"/>
		</g>
	</g>
	<g>
		<g>
			<path fill="#FFFFFF" d="M565.757,220.705c-2.082-0.88-3.33-2.398-3.811-4.604c-0.411-1.89-3.304-1.088-2.893,0.798
				c0.625,2.869,2.466,5.245,5.189,6.396c0.753,0.318,1.6,0.234,2.052-0.539C566.668,222.121,566.511,221.023,565.757,220.705
				L565.757,220.705z"/>
		</g>
	</g>
	<g>
		<g>
			<path fill="#FFFFFF" d="M572.102,231.446c6.563,1.064,12.574,3.915,19,5.5c1.878,0.464,2.675-2.43,0.797-2.893
				c-6.425-1.585-12.437-4.436-19-5.5C571.007,228.247,570.195,231.137,572.102,231.446L572.102,231.446z"/>
		</g>
	</g>
	<g>
		<g>
			<path fill="#FFFFFF" d="M592.5,234c-8.205,0.101-16.436,1.363-24.602,0.054c0.35,0.615,0.699,1.23,1.048,1.845
				c0.882-3.017,4.288-2.851,6.554-2.899c0-1,0-2,0-3c-2.39,0.206-4.595,0.913-6.898,1.554c-1.497,0.416-1.362,2.418,0,2.893
				c3.124,1.088,7.533,1.844,10.655,0.349c1.744-0.835,0.222-3.422-1.514-2.591c-2.263,1.084-6.223,0.087-8.345-0.651
				c0,0.964,0,1.928,0,2.893c2.025-0.563,3.99-1.264,6.102-1.446c1.896-0.164,1.96-3.042,0-3c-4.104,0.087-8.16,0.698-9.446,5.101
				c-0.21,0.72,0.248,1.717,1.048,1.845c8.462,1.356,16.896,0.159,25.398,0.054C594.434,236.976,594.436,233.976,592.5,234
				L592.5,234z"/>
		</g>
	</g>
	<g>
		<g>
			<path fill="#FFFFFF" d="M581.602,232.446c2.195,0.573,4.305,1.427,6.5,2c1.873,0.489,2.668-2.404,0.797-2.893
				c-2.195-0.573-4.305-1.427-6.5-2C580.525,229.064,579.73,231.958,581.602,232.446L581.602,232.446z"/>
		</g>
	</g>
	<g>
		<g>
			<path fill="#FFFFFF" d="M584,233c-3.318-0.066-6.467-0.916-9.602-1.946c-1.843-0.606-2.626,2.291-0.797,2.893
				c3.388,1.115,6.815,1.982,10.398,2.054C585.936,236.039,585.932,233.039,584,233L584,233z"/>
		</g>
	</g>
	<g>
		<g>
			<path fill="#FFFFFF" d="M579.939,233.561c0.746,0.744,1.477,1.344,2.561,1.439c0.815,0.072,1.5-0.737,1.5-1.5
				c0-0.872-0.686-1.428-1.5-1.5c0.073-0.005,0.144,0.005,0.212,0.03c-0.147-0.094-0.183-0.117-0.105-0.069
				c-0.193-0.161-0.368-0.345-0.546-0.521c-0.578-0.577-1.543-0.579-2.121,0C579.362,232.017,579.36,232.983,579.939,233.561
				L579.939,233.561z"/>
		</g>
	</g>
	<g>
		<g>
			<path fill="#FFFFFF" d="M567.439,228.561c2.18,2.151,4.604,3.816,7.662,4.386c1.891,0.352,2.697-2.539,0.797-2.893
				c-2.581-0.481-4.496-1.797-6.338-3.614C568.183,225.08,566.061,227.2,567.439,228.561L567.439,228.561z"/>
		</g>
	</g>
	<g>
		<g>
			<path fill="#FFFFFF" d="M573,227.5c-0.667,0-1.333,0-2,0c-1.935,0-1.935,3,0,3c0.667,0,1.333,0,2,0
				C574.935,230.5,574.935,227.5,573,227.5L573,227.5z"/>
		</g>
	</g>
</g>
</svg>
